<svg width="34" height="30" viewBox="0 0 34 30" fill="none" xmlns="http://www.w3.org/2000/svg">
<path d="M33 14.8574H21.1992" stroke="#231F20" stroke-width="2" stroke-miterlimit="10" stroke-linecap="round"/>
<path d="M24.9991 28.7118L19.0977 18.4932" stroke="#231F20" stroke-width="2" stroke-miterlimit="10" stroke-linecap="round"/>
<path d="M9 28.7118L14.9014 18.4932" stroke="#231F20" stroke-width="2" stroke-miterlimit="10" stroke-linecap="round"/>
<path d="M1 14.8574H12.8007" stroke="#231F20" stroke-width="2" stroke-miterlimit="10" stroke-linecap="round"/>
<path d="M9 1L14.9014 11.2207" stroke="#231F20" stroke-width="2" stroke-miterlimit="10" stroke-linecap="round"/>
<path d="M22.1268 9.5162C24.0823 9.5162 25.6676 7.93093 25.6676 5.97539C25.6676 4.01985 24.0823 2.43457 22.1268 2.43457C20.1712 2.43457 18.5859 4.01985 18.5859 5.97539C18.5859 7.93093 20.1712 9.5162 22.1268 9.5162Z" stroke="#231F20" stroke-width="2" stroke-miterlimit="10" stroke-linecap="round"/>
<path d="M22.1282 6.56393C22.4535 6.56393 22.7173 6.30019 22.7173 5.97484C22.7173 5.64949 22.4535 5.38574 22.1282 5.38574C21.8028 5.38574 21.5391 5.64949 21.5391 5.97484C21.5391 6.30019 21.8028 6.56393 22.1282 6.56393Z" stroke="#231F20" stroke-width="2" stroke-miterlimit="10" stroke-linecap="round"/>
</svg>
