<svg width="202" height="177" viewBox="0 0 202 177" fill="none" xmlns="http://www.w3.org/2000/svg">
<path d="M197 88.1475H126.195" stroke="#231F20" stroke-width="10" stroke-miterlimit="10" stroke-linecap="round"/>
<path d="M148.994 171.275L113.586 109.962" stroke="#231F20" stroke-width="10" stroke-miterlimit="10" stroke-linecap="round"/>
<path d="M53 171.275L88.4085 109.962" stroke="#231F20" stroke-width="10" stroke-miterlimit="10" stroke-linecap="round"/>
<path d="M5 88.1475H75.8045" stroke="#231F20" stroke-width="10" stroke-miterlimit="10" stroke-linecap="round"/>
<path d="M53 5.00098L88.4085 66.3263" stroke="#231F20" stroke-width="10" stroke-miterlimit="10" stroke-linecap="round"/>
<path d="M131.761 56.0989C143.494 56.0989 153.006 46.5871 153.006 34.8537C153.006 23.1202 143.494 13.6084 131.761 13.6084C120.027 13.6084 110.516 23.1202 110.516 34.8537C110.516 46.5871 120.027 56.0989 131.761 56.0989Z" stroke="#231F20" stroke-width="10" stroke-miterlimit="10" stroke-linecap="round"/>
<path d="M131.769 38.3847C133.721 38.3847 135.304 36.8022 135.304 34.8501C135.304 32.8979 133.721 31.3154 131.769 31.3154C129.817 31.3154 128.234 32.8979 128.234 34.8501C128.234 36.8022 129.817 38.3847 131.769 38.3847Z" stroke="#231F20" stroke-width="10" stroke-miterlimit="10" stroke-linecap="round"/>
</svg>
